<?xml version="1.0" encoding="UTF-8"?>
<svg version="1.1" xmlns="http://www.w3.org/2000/svg" width="500" height="500">
<path d="M0 0 C0.91815491 -0.01283524 1.83630981 -0.02567047 2.7822876 -0.03889465 C3.77291199 -0.04628159 4.76353638 -0.05366852 5.78417969 -0.0612793 C6.80654724 -0.06935104 7.82891479 -0.07742279 8.88226318 -0.08573914 C11.04763089 -0.09957367 13.21302035 -0.11029864 15.37841797 -0.11816406 C18.67946045 -0.13535951 21.97949685 -0.17925009 25.28027344 -0.22338867 C27.38573484 -0.23351744 29.49120473 -0.24203297 31.59667969 -0.2487793 C32.57920715 -0.26628738 33.56173462 -0.28379547 34.57403564 -0.30183411 C40.75923095 -0.28239286 44.39639858 0.55713665 49.45605469 4.17700195 C53.72172582 8.86924019 53.64805751 13.12891303 53.45605469 19.17700195 C53.12605469 19.83700195 52.79605469 20.49700195 52.45605469 21.17700195 C53.08060547 21.15605469 53.70515625 21.13510742 54.34863281 21.11352539 C57.21760529 21.02964352 60.08631877 20.97811684 62.95605469 20.92700195 C63.93832031 20.89348633 64.92058594 20.8599707 65.93261719 20.82543945 C72.23361435 20.74142616 77.29592977 21.3156247 82.45605469 25.17700195 C85.12077229 28.21419165 86.30078616 31.31439901 87.01855469 35.30200195 C85.30402977 47.11317361 78.60172631 58.70651041 73.64355469 69.48950195 C72.94332868 71.01993798 72.24345672 72.55053605 71.54394531 74.08129883 C69.85204477 77.78174144 68.15541292 81.47997858 66.45605469 85.17700195 C67.56980469 85.29688477 68.68355469 85.41676758 69.83105469 85.5402832 C73.45605469 86.17700195 73.45605469 86.17700195 75.45605469 88.36450195 C76.66603828 91.76758081 76.28696425 93.70228922 75.45605469 97.17700195 C75.11771906 100.43135355 75.11771906 100.43135355 77.98339844 102.92700195 C79.11479992 104.01588731 80.25190582 105.09886537 81.39355469 106.17700195 C92.48537115 116.97463763 101.87492856 129.30531277 110.45605469 142.17700195 C112.82839941 142.54468451 112.82839941 142.54468451 115.59277344 142.36450195 C116.63771973 142.33888184 117.68266602 142.31326172 118.75927734 142.28686523 C119.87608887 142.25061035 120.99290039 142.21435547 122.14355469 142.17700195 C147.04483183 141.80660472 167.65202351 149.09723911 185.73730469 166.49731445 C186.63449219 167.38161133 187.53167969 168.2659082 188.45605469 169.17700195 C189.12636719 169.83442383 189.79667969 170.4918457 190.48730469 171.16918945 C204.65795788 186.17719942 211.25493166 207.9239134 211.45605469 228.17700195 C210.56218494 252.88288293 201.53087711 274.18897604 183.45605469 291.17700195 C172.58725607 301.0697593 160.5110745 307.23605445 146.45605469 311.17700195 C145.57820312 311.42450195 144.70035156 311.67200195 143.79589844 311.92700195 C125.77925069 316.03856657 107.03121001 313.18922297 90.19824219 306.26293945 C85.724983 304.49147784 83.25456646 303.97417905 78.55371094 305.28637695 C77.59311768 305.54531738 76.63252441 305.80425781 75.64282227 306.07104492 C74.09630981 306.49474365 74.09630981 306.49474365 72.51855469 306.92700195 C28.41846156 318.28288266 -25.20856978 317.93254546 -65.73876953 294.91186523 C-82.99429509 284.52268095 -94.43350538 268.57299674 -100.38769531 249.4699707 C-100.88750442 247.37150748 -101.25676175 245.31398549 -101.54394531 243.17700195 C-101.65222656 242.52473633 -101.76050781 241.8724707 -101.87207031 241.20043945 C-105.89245013 212.95198128 -97.10355327 184.72072111 -83.54394531 160.17700195 C-82.82559733 158.8311278 -82.10816828 157.48476283 -81.39160156 156.13793945 C-69.80659234 134.66172572 -53.96727951 116.15102381 -36.54394531 99.17700195 C-36.87652344 98.59047852 -37.20910156 98.00395508 -37.55175781 97.3996582 C-39.05323196 94.03611967 -38.43626473 91.68254252 -37.54394531 88.17700195 C-35.79394531 86.23950195 -35.79394531 86.23950195 -33.54394531 85.17700195 C-31.87780541 85.13510199 -30.20995222 85.13011103 -28.54394531 85.17700195 C-28.86556641 84.48888428 -29.1871875 83.8007666 -29.51855469 83.09179688 C-33.23029354 75.13684158 -36.90432559 67.16521376 -40.54394531 59.17700195 C-40.99060547 58.19779785 -41.43726563 57.21859375 -41.89746094 56.2097168 C-43.04809982 53.66482291 -44.17585482 51.111332 -45.29394531 48.55200195 C-45.62845703 47.8148999 -45.96296875 47.07779785 -46.30761719 46.31835938 C-48.8690727 40.34507265 -49.60339149 35.23762423 -47.41894531 28.92700195 C-44.59906157 24.79117247 -41.2490052 22.74535525 -36.54394531 21.17700195 C-34.91827452 21.02984996 -33.28807674 20.92978329 -31.65722656 20.8605957 C-30.71943359 20.81870117 -29.78164062 20.77680664 -28.81542969 20.73364258 C-27.83896484 20.69432617 -26.8625 20.65500977 -25.85644531 20.61450195 C-24.86837891 20.57131836 -23.8803125 20.52813477 -22.86230469 20.48364258 C-20.42298985 20.37758541 -17.98357418 20.27552482 -15.54394531 20.17700195 C-15.56424805 19.49500732 -15.58455078 18.8130127 -15.60546875 18.11035156 C-15.62915527 16.76469116 -15.62915527 16.76469116 -15.65332031 15.3918457 C-15.67362305 14.50360107 -15.69392578 13.61535645 -15.71484375 12.70019531 C-15.39914408 8.03911516 -12.86040121 5.33388744 -9.48144531 2.36450195 C-6.29768437 0.4131646 -3.6483226 0.04449451 0 0 Z " fill="#80A57B" transform="translate(195.5439453125,92.822998046875)"/>
<path d="M0 0 C5.24509397 3.98901196 10.00208975 8.42493373 14.69140625 13.046875 C15.696875 14.03300781 15.696875 14.03300781 16.72265625 15.0390625 C30.89330944 30.04707247 37.49028323 51.79378645 37.69140625 72.046875 C36.7975365 96.75275598 27.76622867 118.05884909 9.69140625 135.046875 C-1.17739237 144.93963234 -13.25357394 151.1059275 -27.30859375 155.046875 C-28.18644531 155.294375 -29.06429687 155.541875 -29.96875 155.796875 C-43.82456501 158.95889934 -59.76948189 158.13352717 -73.30859375 154.046875 C-74.89994141 153.57121094 -74.89994141 153.57121094 -76.5234375 153.0859375 C-98.28800985 145.64641095 -114.97548922 129.07320194 -125.62109375 109.109375 C-128.70862505 102.66844165 -130.57233035 95.95631295 -132.30859375 89.046875 C-132.48438965 88.44335205 -132.66018555 87.8398291 -132.84130859 87.21801758 C-137.35987574 66.223442 -131.78143181 44.25926852 -121.30859375 26.046875 C-118.85853579 22.48233396 -116.19748057 19.25867132 -113.30859375 16.046875 C-112.53515625 15.07878906 -111.76171875 14.11070312 -110.96484375 13.11328125 C-84.38283011 -18.82040983 -33.38461917 -22.48859593 0 0 Z " fill="#F4C265" transform="translate(369.30859375,248.953125)"/>
<path d="M0 0 C0.91815491 -0.01283524 1.83630981 -0.02567047 2.7822876 -0.03889465 C3.77291199 -0.04628159 4.76353638 -0.05366852 5.78417969 -0.0612793 C6.80654724 -0.06935104 7.82891479 -0.07742279 8.88226318 -0.08573914 C11.04763089 -0.09957367 13.21302035 -0.11029864 15.37841797 -0.11816406 C18.67946045 -0.13535951 21.97949685 -0.17925009 25.28027344 -0.22338867 C27.38573484 -0.23351744 29.49120473 -0.24203297 31.59667969 -0.2487793 C32.57920715 -0.26628738 33.56173462 -0.28379547 34.57403564 -0.30183411 C40.75923095 -0.28239286 44.39639858 0.55713665 49.45605469 4.17700195 C53.72172582 8.86924019 53.64805751 13.12891303 53.45605469 19.17700195 C53.12605469 19.83700195 52.79605469 20.49700195 52.45605469 21.17700195 C53.08060547 21.15605469 53.70515625 21.13510742 54.34863281 21.11352539 C57.21760529 21.02964352 60.08631877 20.97811684 62.95605469 20.92700195 C63.93832031 20.89348633 64.92058594 20.8599707 65.93261719 20.82543945 C72.23361435 20.74142616 77.29592977 21.3156247 82.45605469 25.17700195 C85.12077229 28.21419165 86.30078616 31.31439901 87.01855469 35.30200195 C85.30402977 47.11317361 78.60172631 58.70651041 73.64355469 69.48950195 C72.94332868 71.01993798 72.24345672 72.55053605 71.54394531 74.08129883 C69.85204477 77.78174144 68.15541292 81.47997858 66.45605469 85.17700195 C67.56980469 85.29688477 68.68355469 85.41676758 69.83105469 85.5402832 C73.45605469 86.17700195 73.45605469 86.17700195 75.45605469 88.36450195 C76.70252676 91.87020465 76.67812478 93.66355042 75.45605469 97.17700195 C71.47286649 100.29581402 68.37948484 100.53347127 63.40527344 100.4699707 C62.74646683 100.46572586 62.08766022 100.46148102 61.40888977 100.45710754 C59.32001584 100.44041391 57.2321333 100.40278253 55.14355469 100.36450195 C53.72104265 100.34944292 52.29851538 100.33575665 50.87597656 100.32348633 C47.40235118 100.29054199 43.92929982 100.23882603 40.45605469 100.17700195 C40.48747559 102.13706177 40.48747559 102.13706177 40.51953125 104.13671875 C40.59201022 108.99142469 40.63788344 113.84608294 40.67578125 118.70117188 C40.69587866 120.80118862 40.72316135 122.90114954 40.7578125 125.00097656 C40.80641239 128.02203153 40.8290423 131.04234572 40.84667969 134.0637207 C40.8776474 135.4686805 40.8776474 135.4686805 40.90924072 136.90202332 C40.91069365 141.13654326 40.82212528 143.54994026 38.65039062 147.27001953 C36.45605469 149.17700195 36.45605469 149.17700195 32.95605469 149.80200195 C29.45605469 149.17700195 29.45605469 149.17700195 27.26171875 147.27001953 C24.68002404 142.84769797 24.95456591 139.09344816 25.06542969 134.0637207 C25.07108948 133.09416946 25.07674927 132.12461823 25.08258057 131.12568665 C25.10491763 128.0381165 25.15510971 124.95171957 25.20605469 121.86450195 C25.22612311 119.76751354 25.24437328 117.67050688 25.26074219 115.57348633 C25.30477382 110.44087489 25.37378358 105.30913713 25.45605469 100.17700195 C20.83605469 100.17700195 16.21605469 100.17700195 11.45605469 100.17700195 C11.50246094 102.45219727 11.54886719 104.72739258 11.59667969 107.0715332 C11.62787667 109.27569345 11.65216341 111.47982909 11.67578125 113.68408203 C11.69589448 115.21576957 11.72318919 116.74738034 11.7578125 118.27880859 C11.80634784 120.48074268 11.82902465 122.68166177 11.84667969 124.8840332 C11.86732483 125.56851028 11.88796997 126.25298737 11.90924072 126.95820618 C11.91074364 130.14405574 11.8620785 131.7507417 9.61914062 134.10546875 C6.65108308 135.57576272 4.72678407 135.65398332 1.45605469 135.17700195 C-0.70703125 133.59790039 -0.70703125 133.59790039 -2.54394531 131.17700195 C-2.99804688 127.87719727 -2.99804688 127.87719727 -2.93457031 124.00512695 C-2.92891052 123.32270935 -2.92325073 122.64029175 -2.91741943 121.93719482 C-2.89510168 119.76640434 -2.84492039 117.59728989 -2.79394531 115.42700195 C-2.77387407 113.95176545 -2.75562438 112.47650296 -2.73925781 111.0012207 C-2.69525412 107.39260694 -2.62626114 103.78496814 -2.54394531 100.17700195 C-3.45684326 100.20318604 -4.36974121 100.22937012 -5.31030273 100.25634766 C-8.71166875 100.34178738 -12.11188789 100.40435194 -15.51391602 100.45166016 C-16.98350057 100.47673839 -18.45296119 100.51081051 -19.92211914 100.55419922 C-22.03986212 100.61515694 -24.15595107 100.64327511 -26.27441406 100.6652832 C-27.54696045 100.69146729 -28.81950684 100.71765137 -30.13061523 100.74462891 C-34.45346606 100.02575128 -35.92166913 98.62641183 -38.54394531 95.17700195 C-38.61095103 91.29067059 -38.43182692 89.16001374 -35.79394531 86.23950195 C-33.18699377 85.0084415 -31.39174961 85.09684852 -28.54394531 85.17700195 C-28.86556641 84.48888428 -29.1871875 83.8007666 -29.51855469 83.09179688 C-33.23029354 75.13684158 -36.90432559 67.16521376 -40.54394531 59.17700195 C-41.21393555 57.7081958 -41.21393555 57.7081958 -41.89746094 56.2097168 C-43.04809982 53.66482291 -44.17585482 51.111332 -45.29394531 48.55200195 C-45.62845703 47.8148999 -45.96296875 47.07779785 -46.30761719 46.31835938 C-48.8690727 40.34507265 -49.60339149 35.23762423 -47.41894531 28.92700195 C-44.59906157 24.79117247 -41.2490052 22.74535525 -36.54394531 21.17700195 C-34.91827452 21.02984996 -33.28807674 20.92978329 -31.65722656 20.8605957 C-30.71943359 20.81870117 -29.78164062 20.77680664 -28.81542969 20.73364258 C-27.83896484 20.69432617 -26.8625 20.65500977 -25.85644531 20.61450195 C-24.86837891 20.57131836 -23.8803125 20.52813477 -22.86230469 20.48364258 C-20.42298985 20.37758541 -17.98357418 20.27552482 -15.54394531 20.17700195 C-15.56424805 19.49500732 -15.58455078 18.8130127 -15.60546875 18.11035156 C-15.62915527 16.76469116 -15.62915527 16.76469116 -15.65332031 15.3918457 C-15.67362305 14.50360107 -15.69392578 13.61535645 -15.71484375 12.70019531 C-15.39914408 8.03911516 -12.86040121 5.33388744 -9.48144531 2.36450195 C-6.29768437 0.4131646 -3.6483226 0.04449451 0 0 Z " fill="#3E5C2F" transform="translate(195.5439453125,92.822998046875)"/>
<path d="M0 0 C0.91815491 -0.01283524 1.83630981 -0.02567047 2.7822876 -0.03889465 C3.77291199 -0.04628159 4.76353638 -0.05366852 5.78417969 -0.0612793 C6.80654724 -0.06935104 7.82891479 -0.07742279 8.88226318 -0.08573914 C11.04763089 -0.09957367 13.21302035 -0.11029864 15.37841797 -0.11816406 C18.67946045 -0.13535951 21.97949685 -0.17925009 25.28027344 -0.22338867 C27.38573484 -0.23351744 29.49120473 -0.24203297 31.59667969 -0.2487793 C32.57920715 -0.26628738 33.56173462 -0.28379547 34.57403564 -0.30183411 C40.75923095 -0.28239286 44.39639858 0.55713665 49.45605469 4.17700195 C53.05133215 8.13180716 53.67025032 11.64818859 53.59753418 16.9498291 C53.3556266 20.75794288 52.54107723 24.41050707 51.72167969 28.13012695 C50.09723376 35.86732702 48.63738101 43.6167173 47.31542969 51.41137695 C47.1412854 52.43783325 46.96714111 53.46428955 46.78771973 54.52185059 C46.25826214 57.65652897 45.7320689 60.79174412 45.20605469 63.92700195 C44.83914259 66.10022555 44.47195648 68.27340291 44.10449219 70.4465332 C43.21853442 75.6894963 42.33590595 80.93301081 41.45605469 86.17700195 C35.06568238 86.20227257 28.67532286 86.21983513 22.28491211 86.23193359 C20.10912596 86.23697503 17.93334322 86.24380803 15.75756836 86.25244141 C12.63752402 86.26451533 9.5175243 86.270232 6.39746094 86.2746582 C5.41830215 86.27981949 4.43914337 86.28498077 3.43031311 86.29029846 C2.07902565 86.29041176 2.07902565 86.29041176 0.70043945 86.29052734 C-0.49535988 86.29385826 -0.49535988 86.29385826 -1.71531677 86.29725647 C-3.54394531 86.17700195 -3.54394531 86.17700195 -4.54394531 85.17700195 C-4.92767362 83.30246778 -5.25500993 81.41635639 -5.55957031 79.52734375 C-5.75647461 78.31906418 -5.95337891 77.11078461 -6.15625 75.8658905 C-6.36884913 74.53600601 -6.58141338 73.20611594 -6.79394531 71.8762207 C-7.01392003 70.51953199 -7.234303 69.1629094 -7.45507812 67.80635071 C-8.03683504 64.2261914 -8.61400219 60.64530824 -9.18994141 57.06420898 C-10.11078289 51.34229055 -11.03774259 45.62136386 -11.96618652 39.90067482 C-12.28971144 37.9023719 -12.61082081 35.90369176 -12.93164062 33.904953 C-13.12854492 32.68721695 -13.32544922 31.4694809 -13.52832031 30.21484375 C-13.70073242 29.14308395 -13.87314453 28.07132416 -14.05078125 26.96708679 C-14.45784544 24.66411356 -14.9668609 22.44049385 -15.54394531 20.17700195 C-16.05113163 15.13839688 -16.12179156 11.31205708 -13.79394531 6.73950195 C-9.65169549 2.02193966 -6.3160261 0.07702951 0 0 Z " fill="#537B3E" transform="translate(195.5439453125,92.822998046875)"/>
<path d="M0 0 C1.9375 1 1.9375 1 3 3 C3.23595284 5.71882023 3.13477523 8.25957022 3 11 C4.2684375 11.12375 4.2684375 11.12375 5.5625 11.25 C10.44868729 12.31607723 16.16725271 14.66756296 19 19 C19.54068562 22.63031776 19.46379841 24.32214079 17.375 27.375 C14.27034254 29.49923932 12.70665305 29.51893143 9 29 C7.02 28.01 5.04 27.02 3 26 C3 33.26 3 40.52 3 48 C5.97 48.99 8.94 49.98 12 51 C17.13426376 54.35396177 21.65981007 58.76882894 23.546875 64.7265625 C25.52461742 74.64937361 24.33916598 83.34162461 18.8671875 91.73828125 C15.08806526 96.78128212 10.10825038 99.65003657 4 101 C3.96132813 101.92232422 3.96132813 101.92232422 3.921875 102.86328125 C3.46055437 109.43710021 3.46055437 109.43710021 1.3125 112.0625 C-1.76898111 113.3117491 -3.70534201 113.54910967 -7 113 C-10.05661905 110.26513033 -10.93974578 108.79836847 -11.25 104.6875 C-11.1675 103.800625 -11.085 102.91375 -11 102 C-11.94359375 101.87044922 -11.94359375 101.87044922 -12.90625 101.73828125 C-19.12671318 100.717151 -24.08997001 99.05558849 -29 95 C-31.32749345 91.50875983 -31.50299316 90.10777749 -31 86 C-29.4375 83.5625 -29.4375 83.5625 -27 82 C-20.71726709 82 -17.03772518 84.31656658 -11 87 C-11 77.1 -11 67.2 -11 57 C-12.98 56.34 -14.96 55.68 -17 55 C-22.27759801 51.41426355 -26.84602271 47.32850255 -28.6328125 41.0625 C-29.98607755 33.4611814 -28.96078669 27.67015918 -25 21 C-22.18882236 17.05382818 -19.60181171 13.80411936 -15 12 C-13.68 12 -12.36 12 -11 12 C-11.12375 10.14375 -11.12375 10.14375 -11.25 8.25 C-11.23373935 5.19299695 -11.10738813 4.171821 -9.4375 1.5 C-6.08965651 -0.56021138 -3.85985753 -0.49125459 0 0 Z " fill="#FEFDFC" transform="translate(324,264)"/>
<path d="M0 0 C4.15414235 0.66763002 5.04861219 1.20029931 7.5 4.5625 C8.15918284 7.52045943 8.27993239 10.47926305 8.4375 13.5 C9.67194703 29.04428694 15.62349585 42.65508455 27.02734375 53.46875 C48.2920535 71.47488654 75.92870578 75.51714461 102.71679688 77.21923828 C105.09861982 77.37414204 107.47882088 77.54558434 109.859375 77.71875 C110.94674957 77.77983948 110.94674957 77.77983948 112.05609131 77.84216309 C114.92579566 78.05630087 117.04303534 78.24837979 119.44628906 79.90039062 C121.30997964 82.84015092 120.97096511 85.20687359 120.5 88.5625 C117.73755087 91.61202718 115.55684358 92.80631931 111.5234375 93.0234375 C109.97370021 93.01889972 108.42389572 92.98876704 106.875 92.9375 C106.03815674 92.92098389 105.20131348 92.90446777 104.33911133 92.88745117 C71.41174308 91.99069271 35.44666109 84.75444986 11.86621094 60.04589844 C2.71006953 50.10438393 -4.99561547 36.20643193 -6.5 22.5625 C-6.57476562 21.92103027 -6.64953125 21.27956055 -6.7265625 20.61865234 C-6.97602614 18.35185273 -7.18195182 16.08476815 -7.375 13.8125 C-7.44895996 13.07845947 -7.52291992 12.34441895 -7.59912109 11.58813477 C-7.84867721 7.86395692 -7.65259614 5.81895563 -5.7265625 2.58203125 C-3.5 0.5625 -3.5 0.5625 0 0 Z " fill="#608C5D" transform="translate(100.5,313.4375)"/>
<path d="M0 0 C2.10358381 1.54262813 2.84054159 2.68108317 4 5 C4.17427617 6.80155364 4.34489768 8.60357017 4.49291992 10.4074707 C6.07604534 28.44953873 13.514087 47.31143554 27.62109375 59.2109375 C41.03153363 69.7090972 55.1307709 75.77783704 72.16796875 76.74609375 C75.79721986 77.07147488 78.17597425 77.64664521 81 80 C82.1875 83.375 82.1875 83.375 82 87 C80.375 89.9375 80.375 89.9375 77 92 C58.04292858 94.83950428 38.71180594 86.36134288 23.79150391 75.36474609 C6.48900015 62.18390717 -3.7053535 45.06997787 -9 24 C-9.176521 23.36006104 -9.35304199 22.72012207 -9.53491211 22.06079102 C-10.3281412 18.54601581 -10.22576696 15.02701914 -10.25 11.4375 C-10.270625 10.66986328 -10.29125 9.90222656 -10.3125 9.11132812 C-10.35133834 3.54288123 -10.35133834 3.54288123 -8.703125 0.99609375 C-5.79671756 -0.70375464 -3.26439026 -0.3497561 0 0 Z " fill="#DBA749" transform="translate(246,314)"/>
<path d="M0 0 C4.95 0 9.9 0 15 0 C15.09898364 6.17467586 15.1715236 12.34888843 15.21972656 18.52416992 C15.23982397 20.62418667 15.26710666 22.72414758 15.30175781 24.82397461 C15.3503577 27.84502958 15.37298762 30.86534377 15.390625 33.88671875 C15.41127014 34.82335861 15.43191528 35.75999847 15.45318604 36.72502136 C15.45463896 40.95954131 15.36607059 43.3729383 13.19433594 47.09301758 C11 49 11 49 7.5 49.625 C4 49 4 49 1.80566406 47.09301758 C-0.77603064 42.67069602 -0.50148878 38.91644621 -0.390625 33.88671875 C-0.38496521 32.91716751 -0.37930542 31.94761627 -0.37347412 30.94868469 C-0.35113706 27.86111454 -0.30094498 24.77471761 -0.25 21.6875 C-0.22993158 19.59051159 -0.21168141 17.49350493 -0.1953125 15.39648438 C-0.15128087 10.26387293 -0.08227111 5.13213518 0 0 Z " fill="#567E42" transform="translate(221,193)"/>
<path d="M0 0 C4.62 0 9.24 0 14 0 C14.09185363 4.50337952 14.1714723 9.00350992 14.21972656 13.50708008 C14.2398398 15.03876762 14.2671345 16.57037839 14.30175781 18.10180664 C14.35029315 20.30374073 14.37296996 22.50465982 14.390625 24.70703125 C14.41127014 25.39150833 14.43191528 26.07598541 14.45318604 26.78120422 C14.45468895 29.96705379 14.40602382 31.57373975 12.16308594 33.9284668 C9.19502839 35.39876077 7.27072938 35.47698137 4 35 C1.83691406 33.42089844 1.83691406 33.42089844 0 31 C-0.45410156 27.70019531 -0.45410156 27.70019531 -0.390625 23.828125 C-0.38496521 23.1457074 -0.37930542 22.46328979 -0.37347412 21.76019287 C-0.35115636 19.58940238 -0.30097508 17.42028794 -0.25 15.25 C-0.22992876 13.7747635 -0.21167907 12.29950101 -0.1953125 10.82421875 C-0.15471372 7.21498728 -0.0764335 3.60935993 0 0 Z " fill="#547C3F" transform="translate(193,193)"/>
<path d="M0 0 C4.50231678 2.25115839 5.77588453 3.55176906 8 8 C8.19876364 14.2610547 6.58517071 17.21597001 2.375 21.75 C1 23 1 23 0 23 C0 15.41 0 7.82 0 0 Z " fill="#F6C977" transform="translate(327,327)"/>
<path d="M0 0 C0.66 0 1.32 0 2 0 C2 4.29 2 8.58 2 13 C1.01 12.34 0.02 11.68 -1 11 C-1.328125 8.90625 -1.328125 8.90625 -1.25 6.5 C-1.23453125 5.7059375 -1.2190625 4.911875 -1.203125 4.09375 C-1 2 -1 2 0 0 Z " fill="#F5C46A" transform="translate(311,292)"/>
</svg>
